<svg width="1920" height="1080" viewBox="0 0 1920 1080" fill="none" xmlns="http://www.w3.org/2000/svg">
<g clip-path="url(#clip0)">
<rect width="1920" height="1080" fill="#211E1E"/>
<g opacity="0.5" clip-path="url(#clip1)">
<path d="M1742.22 -384.982L945.019 74.2036L1404.21 871.411L2201.41 412.225L1742.22 -384.982Z" fill="#F0DB4F"/>
<path d="M1736.98 446.067C1781.67 523.651 1756.51 585.302 1690.13 623.535C1630.17 658.075 1577.64 647.101 1538.21 619.806L1578.03 547.814C1601.77 561.868 1622.59 573.333 1648.39 558.471C1672.95 544.327 1683.08 525.697 1661.45 488.152L1514.78 233.506L1589.69 190.355L1736.98 446.067Z" fill="#323330"/>
<path d="M1979.3 456.976C1909.72 497.052 1845.64 489.884 1798.74 459.075L1839.48 388.681C1870.57 405.617 1902.73 412.918 1939.57 391.7C1970.53 373.866 1981.54 346.908 1969.14 325.379C1954.38 299.752 1928.87 302.364 1885.82 307.017L1862.52 309.773C1795.2 317.975 1742.73 309.572 1707.57 248.538C1675.18 192.306 1693.47 124.896 1760.2 86.461C1807.89 58.9915 1851.58 55.8613 1901.15 85.1365L1864.31 156.124C1838.27 140.547 1819.17 139.47 1797.64 151.872C1775.75 164.479 1769.86 186.356 1780.32 204.503C1793.23 226.926 1812.34 228.008 1852.64 223.51L1875.94 220.757C1955.33 211.289 2007.19 218.628 2043.27 281.265C2082.01 348.523 2050.3 416.081 1979.3 456.976Z" fill="#323330"/>
</g>
<path d="M924.685 956.677L1078.4 1066.18L1136.05 974.077L981.07 839.542L788.253 806.656L731 925.594L924.685 956.677Z" fill="#FFDE00" stroke="#D6D600" stroke-width="3"/>
<path d="M284 868L98 836L86 944L284 998L472 944V812L284 868Z" fill="#FFDE00" stroke="#D6D600" stroke-opacity="0.8" stroke-width="3"/>
<path d="M518.996 218H59V677.998H518.996V218Z" fill="#F0DB4F"/>
<path d="M309.329 576.758C309.329 621.525 283.043 641.958 244.743 641.958C210.142 641.958 190.12 624.093 179.851 602.429L215.069 581.174C221.846 593.187 228.007 603.351 242.895 603.351C257.064 603.351 266.102 597.807 266.102 576.143V429.209H309.329V576.758Z" fill="#323330"/>
<path d="M411.596 641.958C371.449 641.958 345.472 622.859 332.842 597.807L368.061 577.475C377.302 592.57 389.417 603.761 410.672 603.761C428.538 603.761 440.036 594.829 440.036 582.406C440.036 567.619 428.332 562.385 408.516 553.656L397.735 549.036C366.521 535.79 345.882 519.053 345.882 483.836C345.882 451.389 370.627 426.746 409.13 426.746C436.648 426.746 456.362 436.295 470.532 461.349L436.853 482.911C429.461 469.665 421.452 464.43 409.028 464.43C396.398 464.43 388.389 472.44 388.389 482.911C388.389 495.849 396.398 501.087 414.983 509.196L425.763 513.817C462.522 529.527 483.16 545.649 483.16 581.791C483.162 620.601 452.563 641.958 411.596 641.958Z" fill="#323330"/>
<rect x="754" y="332" width="676" height="194" fill="#F0DB4F"/>
<rect x="974" y="545" width="676" height="194" fill="#F0DB4F"/>
<path d="M790 455.5C788.333 455.633 787.067 455.4 786.2 454.8C785.333 454.2 784.9 453.3 784.9 452.1C784.9 449.9 786.133 448.767 788.6 448.7L791.6 448.5C795 448.3 797.533 447.267 799.2 445.4C800.867 443.467 801.7 440.4 801.7 436.2V388.2C801.7 386.933 802.1 385.933 802.9 385.2C803.7 384.4 804.667 384 805.8 384C807.067 384 808.067 384.4 808.8 385.2C809.533 385.933 809.9 386.933 809.9 388.2V436.3C809.9 442.433 808.5 447.067 805.7 450.2C802.9 453.267 798.667 454.967 793 455.3L790 455.5ZM888.017 450.3C888.284 450.833 888.417 451.4 888.417 452C888.417 453 888.017 453.833 887.217 454.5C886.484 455.167 885.584 455.5 884.517 455.5C882.851 455.5 881.684 454.7 881.017 453.1L873.917 436.9H836.217L829.017 453.1C828.351 454.7 827.184 455.5 825.517 455.5C824.451 455.5 823.517 455.167 822.717 454.5C821.917 453.767 821.517 452.9 821.517 451.9C821.517 451.367 821.651 450.833 821.917 450.3L850.517 386.7C850.917 385.767 851.517 385.067 852.317 384.6C853.117 384.133 853.984 383.9 854.917 383.9C855.917 383.9 856.817 384.167 857.617 384.7C858.417 385.167 859.017 385.833 859.417 386.7L888.017 450.3ZM839.217 430.1H870.917L855.017 394.2L839.217 430.1ZM945.326 386.1C945.659 385.367 946.126 384.8 946.726 384.4C947.392 384 948.092 383.8 948.826 383.8C949.892 383.8 950.826 384.167 951.626 384.9C952.492 385.567 952.926 386.4 952.926 387.4C952.926 387.933 952.792 388.467 952.526 389L923.826 452.8C923.426 453.667 922.826 454.333 922.026 454.8C921.226 455.267 920.359 455.5 919.426 455.5C918.492 455.5 917.626 455.267 916.826 454.8C916.026 454.333 915.426 453.667 915.026 452.8L886.426 389C886.226 388.467 886.126 387.967 886.126 387.5C886.126 386.433 886.559 385.567 887.426 384.9C888.292 384.167 889.259 383.8 890.326 383.8C891.926 383.8 893.092 384.567 893.826 386.1L919.626 444.4L945.326 386.1ZM1017.12 450.3C1017.39 450.833 1017.52 451.4 1017.52 452C1017.52 453 1017.12 453.833 1016.32 454.5C1015.59 455.167 1014.69 455.5 1013.62 455.5C1011.95 455.5 1010.79 454.7 1010.12 453.1L1003.02 436.9H965.319L958.119 453.1C957.452 454.7 956.285 455.5 954.619 455.5C953.552 455.5 952.619 455.167 951.819 454.5C951.019 453.767 950.619 452.9 950.619 451.9C950.619 451.367 950.752 450.833 951.019 450.3L979.619 386.7C980.019 385.767 980.619 385.067 981.419 384.6C982.219 384.133 983.085 383.9 984.019 383.9C985.019 383.9 985.919 384.167 986.719 384.7C987.519 385.167 988.119 385.833 988.519 386.7L1017.12 450.3ZM968.319 430.1H1000.02L984.119 394.2L968.319 430.1ZM1050.99 455.8C1045.99 455.8 1041.19 455.067 1036.59 453.6C1032.06 452.067 1028.42 450.033 1025.69 447.5C1024.69 446.567 1024.19 445.4 1024.19 444C1024.19 443.067 1024.46 442.267 1024.99 441.6C1025.52 440.867 1026.16 440.5 1026.89 440.5C1027.76 440.5 1028.69 440.867 1029.69 441.6C1035.89 446.4 1042.96 448.8 1050.89 448.8C1056.62 448.8 1061.02 447.7 1064.09 445.5C1067.16 443.3 1068.69 440.167 1068.69 436.1C1068.69 433.767 1067.96 431.9 1066.49 430.5C1065.02 429.033 1063.09 427.867 1060.69 427C1058.29 426.133 1055.06 425.233 1050.99 424.3C1045.52 423.033 1041.02 421.7 1037.49 420.3C1034.02 418.9 1031.19 416.9 1028.99 414.3C1026.86 411.7 1025.79 408.3 1025.79 404.1C1025.79 400.1 1026.86 396.567 1028.99 393.5C1031.19 390.367 1034.22 387.967 1038.09 386.3C1042.02 384.567 1046.49 383.7 1051.49 383.7C1056.16 383.7 1060.49 384.433 1064.49 385.9C1068.56 387.3 1071.96 389.333 1074.69 392C1075.76 393.067 1076.29 394.233 1076.29 395.5C1076.29 396.433 1076.02 397.267 1075.49 398C1074.96 398.667 1074.32 399 1073.59 399C1072.86 399 1071.89 398.633 1070.69 397.9C1067.42 395.233 1064.39 393.367 1061.59 392.3C1058.79 391.233 1055.42 390.7 1051.49 390.7C1045.96 390.7 1041.66 391.867 1038.59 394.2C1035.52 396.467 1033.99 399.667 1033.99 403.8C1033.99 407.333 1035.32 410 1037.99 411.8C1040.72 413.533 1044.89 415.067 1050.49 416.4C1056.56 417.867 1061.32 419.233 1064.79 420.5C1068.26 421.7 1071.12 423.533 1073.39 426C1075.72 428.467 1076.89 431.767 1076.89 435.9C1076.89 439.833 1075.79 443.3 1073.59 446.3C1071.46 449.3 1068.42 451.633 1064.49 453.3C1060.56 454.967 1056.06 455.8 1050.99 455.8ZM1120.11 455.8C1113.44 455.8 1107.67 454.367 1102.81 451.5C1097.94 448.567 1094.17 444.4 1091.51 439C1088.91 433.533 1087.61 427.1 1087.61 419.7C1087.61 412.367 1088.91 406 1091.51 400.6C1094.17 395.133 1097.94 390.967 1102.81 388.1C1107.67 385.167 1113.44 383.7 1120.11 383.7C1124.57 383.7 1128.77 384.433 1132.71 385.9C1136.71 387.3 1140.17 389.333 1143.11 392C1144.17 393 1144.71 394.167 1144.71 395.5C1144.71 396.433 1144.44 397.267 1143.91 398C1143.37 398.667 1142.74 399 1142.01 399C1141.21 399 1140.24 398.633 1139.11 397.9C1135.71 395.233 1132.61 393.367 1129.81 392.3C1127.07 391.233 1123.91 390.7 1120.31 390.7C1112.57 390.7 1106.61 393.233 1102.41 398.3C1098.27 403.3 1096.21 410.433 1096.21 419.7C1096.21 429.033 1098.27 436.233 1102.41 441.3C1106.61 446.3 1112.57 448.8 1120.31 448.8C1123.84 448.8 1127.01 448.267 1129.81 447.2C1132.61 446.133 1135.71 444.267 1139.11 441.6C1140.24 440.867 1141.21 440.5 1142.01 440.5C1142.74 440.5 1143.37 440.833 1143.91 441.5C1144.44 442.167 1144.71 443 1144.71 444C1144.71 445.333 1144.17 446.5 1143.11 447.5C1140.17 450.167 1136.71 452.233 1132.71 453.7C1128.77 455.1 1124.57 455.8 1120.11 455.8ZM1211.68 449.9C1212.15 450.633 1212.38 451.4 1212.38 452.2C1212.38 453.2 1211.98 454.033 1211.18 454.7C1210.45 455.3 1209.58 455.6 1208.58 455.6C1207.05 455.6 1205.85 454.933 1204.98 453.6L1191.58 432.4C1189.85 429.667 1188.05 427.8 1186.18 426.8C1184.32 425.733 1181.78 425.2 1178.58 425.2H1165.98V451.3C1165.98 452.567 1165.62 453.6 1164.88 454.4C1164.15 455.133 1163.18 455.5 1161.98 455.5C1160.72 455.5 1159.72 455.133 1158.98 454.4C1158.25 453.6 1157.88 452.567 1157.88 451.3V388.5C1157.88 387.3 1158.25 386.333 1158.98 385.6C1159.78 384.867 1160.82 384.5 1162.08 384.5H1186.88C1194.55 384.5 1200.38 386.2 1204.38 389.6C1208.45 393 1210.48 398 1210.48 404.6C1210.48 410.2 1208.85 414.7 1205.58 418.1C1202.38 421.5 1197.78 423.567 1191.78 424.3C1193.45 424.833 1194.95 425.7 1196.28 426.9C1197.62 428.1 1198.95 429.767 1200.28 431.9L1211.68 449.9ZM1186.18 418.4C1191.65 418.4 1195.72 417.267 1198.38 415C1201.12 412.733 1202.48 409.3 1202.48 404.7C1202.48 400.167 1201.15 396.8 1198.48 394.6C1195.82 392.4 1191.72 391.3 1186.18 391.3H1165.98V418.4H1186.18ZM1230.54 455.5C1229.27 455.5 1228.27 455.133 1227.54 454.4C1226.8 453.6 1226.44 452.567 1226.44 451.3V388.2C1226.44 386.933 1226.8 385.933 1227.54 385.2C1228.27 384.4 1229.27 384 1230.54 384C1231.8 384 1232.8 384.4 1233.54 385.2C1234.27 385.933 1234.64 386.933 1234.64 388.2V451.3C1234.64 452.567 1234.27 453.6 1233.54 454.4C1232.8 455.133 1231.8 455.5 1230.54 455.5ZM1256.12 455.5C1254.86 455.5 1253.86 455.133 1253.12 454.4C1252.39 453.6 1252.02 452.567 1252.02 451.3V388.5C1252.02 387.3 1252.39 386.333 1253.12 385.6C1253.92 384.867 1254.96 384.5 1256.22 384.5H1279.92C1287.32 384.5 1293.06 386.3 1297.12 389.9C1301.26 393.5 1303.32 398.6 1303.32 405.2C1303.32 411.8 1301.26 416.933 1297.12 420.6C1292.99 424.267 1287.26 426.1 1279.92 426.1H1260.22V451.3C1260.22 452.567 1259.86 453.6 1259.12 454.4C1258.39 455.133 1257.39 455.5 1256.12 455.5ZM1279.12 419.3C1289.86 419.3 1295.22 414.6 1295.22 405.2C1295.22 395.933 1289.86 391.3 1279.12 391.3H1260.22V419.3H1279.12ZM1335.82 455.5C1334.56 455.5 1333.52 455.133 1332.72 454.4C1331.99 453.6 1331.62 452.567 1331.62 451.3V391.5H1310.12C1308.92 391.5 1307.99 391.2 1307.32 390.6C1306.66 390 1306.32 389.133 1306.32 388C1306.32 386.867 1306.66 386 1307.32 385.4C1307.99 384.8 1308.92 384.5 1310.12 384.5H1361.42C1362.62 384.5 1363.56 384.8 1364.22 385.4C1364.89 386 1365.22 386.867 1365.22 388C1365.22 389.133 1364.89 390 1364.22 390.6C1363.56 391.2 1362.62 391.5 1361.42 391.5H1339.92V451.3C1339.92 452.567 1339.56 453.6 1338.82 454.4C1338.09 455.133 1337.09 455.5 1335.82 455.5Z" fill="black"/>
<path d="M1002.24 678.4C1001.23 678.4 1000.43 678.107 999.84 677.52C999.253 676.88 998.96 676.053 998.96 675.04V624.8C998.96 623.84 999.253 623.067 999.84 622.48C1000.48 621.893 1001.31 621.6 1002.32 621.6H1031.44C1032.4 621.6 1033.15 621.84 1033.68 622.32C1034.21 622.8 1034.48 623.493 1034.48 624.4C1034.48 625.253 1034.21 625.92 1033.68 626.4C1033.15 626.88 1032.4 627.12 1031.44 627.12H1005.44V646.56H1029.84C1030.8 646.56 1031.55 646.8 1032.08 647.28C1032.61 647.76 1032.88 648.453 1032.88 649.36C1032.88 650.213 1032.61 650.88 1032.08 651.36C1031.55 651.84 1030.8 652.08 1029.84 652.08H1005.44V675.04C1005.44 676.053 1005.15 676.88 1004.56 677.52C1004.03 678.107 1003.25 678.4 1002.24 678.4ZM1065.84 678.64C1060.61 678.64 1056.05 677.467 1052.16 675.12C1048.32 672.773 1045.36 669.44 1043.28 665.12C1041.2 660.8 1040.16 655.707 1040.16 649.84C1040.16 643.92 1041.17 638.8 1043.2 634.48C1045.28 630.107 1048.24 626.773 1052.08 624.48C1055.97 622.133 1060.56 620.96 1065.84 620.96C1071.12 620.96 1075.68 622.133 1079.52 624.48C1083.41 626.773 1086.37 630.107 1088.4 634.48C1090.48 638.8 1091.52 643.893 1091.52 649.76C1091.52 655.627 1090.48 660.747 1088.4 665.12C1086.32 669.44 1083.33 672.773 1079.44 675.12C1075.6 677.467 1071.07 678.64 1065.84 678.64ZM1065.84 673.04C1071.81 673.04 1076.45 671.04 1079.76 667.04C1083.12 662.987 1084.8 657.227 1084.8 649.76C1084.8 642.293 1083.15 636.56 1079.84 632.56C1076.53 628.56 1071.87 626.56 1065.84 626.56C1059.87 626.56 1055.2 628.587 1051.84 632.64C1048.53 636.64 1046.88 642.347 1046.88 649.76C1046.88 657.173 1048.53 662.907 1051.84 666.96C1055.2 671.013 1059.87 673.04 1065.84 673.04ZM1146.38 673.92C1146.75 674.507 1146.94 675.12 1146.94 675.76C1146.94 676.56 1146.62 677.227 1145.98 677.76C1145.39 678.24 1144.7 678.48 1143.9 678.48C1142.67 678.48 1141.71 677.947 1141.02 676.88L1130.3 659.92C1128.91 657.733 1127.47 656.24 1125.98 655.44C1124.48 654.587 1122.46 654.16 1119.89 654.16H1109.82V675.04C1109.82 676.053 1109.52 676.88 1108.94 677.52C1108.35 678.107 1107.58 678.4 1106.62 678.4C1105.6 678.4 1104.8 678.107 1104.22 677.52C1103.63 676.88 1103.34 676.053 1103.34 675.04V624.8C1103.34 623.84 1103.63 623.067 1104.22 622.48C1104.86 621.893 1105.68 621.6 1106.7 621.6H1126.54C1132.67 621.6 1137.34 622.96 1140.54 625.68C1143.79 628.4 1145.42 632.4 1145.42 637.68C1145.42 642.16 1144.11 645.76 1141.5 648.48C1138.94 651.2 1135.26 652.853 1130.46 653.44C1131.79 653.867 1132.99 654.56 1134.06 655.52C1135.12 656.48 1136.19 657.813 1137.26 659.52L1146.38 673.92ZM1125.98 648.72C1130.35 648.72 1133.6 647.813 1135.74 646C1137.92 644.187 1139.02 641.44 1139.02 637.76C1139.02 634.133 1137.95 631.44 1135.82 629.68C1133.68 627.92 1130.4 627.04 1125.98 627.04H1109.82V648.72H1125.98ZM1210.8 649.04C1214.06 649.893 1216.56 651.493 1218.32 653.84C1220.14 656.187 1221.04 659.12 1221.04 662.64C1221.04 667.6 1219.42 671.413 1216.16 674.08C1212.91 676.693 1208.3 678 1202.32 678H1182.16C1181.15 678 1180.32 677.707 1179.68 677.12C1179.1 676.533 1178.8 675.76 1178.8 674.8V624.8C1178.8 623.84 1179.1 623.067 1179.68 622.48C1180.32 621.893 1181.15 621.6 1182.16 621.6H1201.44C1207.26 621.6 1211.76 622.88 1214.96 625.44C1218.16 628 1219.76 631.627 1219.76 636.32C1219.76 639.36 1218.96 641.973 1217.36 644.16C1215.82 646.347 1213.63 647.973 1210.8 649.04ZM1185.28 646.64H1200.48C1204.7 646.64 1207.87 645.787 1210 644.08C1212.19 642.373 1213.28 639.893 1213.28 636.64C1213.28 630.24 1209.02 627.04 1200.48 627.04H1185.28V646.64ZM1201.68 672.56C1206.11 672.56 1209.36 671.76 1211.44 670.16C1213.58 668.507 1214.64 665.947 1214.64 662.48C1214.64 655.547 1210.32 652.08 1201.68 652.08H1185.28V672.56H1201.68ZM1236.07 678C1235.06 678 1234.23 677.707 1233.59 677.12C1233 676.533 1232.71 675.76 1232.71 674.8V624.8C1232.71 623.84 1233 623.067 1233.59 622.48C1234.23 621.893 1235.06 621.6 1236.07 621.6H1265.99C1266.95 621.6 1267.7 621.84 1268.23 622.32C1268.76 622.8 1269.03 623.467 1269.03 624.32C1269.03 625.173 1268.76 625.84 1268.23 626.32C1267.7 626.8 1266.95 627.04 1265.99 627.04H1239.19V646.64H1264.39C1265.35 646.64 1266.1 646.88 1266.63 647.36C1267.16 647.84 1267.43 648.507 1267.43 649.36C1267.43 650.213 1267.16 650.88 1266.63 651.36C1266.1 651.84 1265.35 652.08 1264.39 652.08H1239.19V672.56H1265.99C1266.95 672.56 1267.7 672.8 1268.23 673.28C1268.76 673.707 1269.03 674.373 1269.03 675.28C1269.03 676.133 1268.76 676.8 1268.23 677.28C1267.7 677.76 1266.95 678 1265.99 678H1236.07ZM1320.88 648.64C1321.68 648.64 1322.32 648.88 1322.8 649.36C1323.33 649.84 1323.6 650.507 1323.6 651.36V671.28C1323.6 672.56 1323.39 673.52 1322.96 674.16C1322.59 674.8 1321.87 675.307 1320.8 675.68C1318.67 676.587 1316.08 677.307 1313.04 677.84C1310 678.373 1306.96 678.64 1303.92 678.64C1298.32 678.64 1293.49 677.493 1289.44 675.2C1285.39 672.907 1282.27 669.6 1280.08 665.28C1277.95 660.96 1276.88 655.787 1276.88 649.76C1276.88 643.84 1277.95 638.72 1280.08 634.4C1282.21 630.08 1285.28 626.773 1289.28 624.48C1293.28 622.133 1297.97 620.96 1303.36 620.96C1307.09 620.96 1310.56 621.547 1313.76 622.72C1316.96 623.84 1319.65 625.467 1321.84 627.6C1322.75 628.507 1323.2 629.44 1323.2 630.4C1323.2 631.147 1322.99 631.813 1322.56 632.4C1322.13 632.933 1321.6 633.2 1320.96 633.2C1320.32 633.2 1319.57 632.88 1318.72 632.24C1315.95 630.107 1313.44 628.64 1311.2 627.84C1308.96 626.987 1306.37 626.56 1303.44 626.56C1297.09 626.56 1292.21 628.56 1288.8 632.56C1285.44 636.56 1283.76 642.293 1283.76 649.76C1283.76 657.387 1285.47 663.2 1288.88 667.2C1292.35 671.147 1297.41 673.12 1304.08 673.12C1309.04 673.12 1313.55 672.373 1317.6 670.88V653.76H1305.92C1305.01 653.76 1304.29 653.52 1303.76 653.04C1303.23 652.56 1302.96 651.947 1302.96 651.2C1302.96 650.4 1303.23 649.787 1303.76 649.36C1304.29 648.88 1305.01 648.64 1305.92 648.64H1320.88ZM1340.13 678.4C1339.12 678.4 1338.32 678.107 1337.73 677.52C1337.14 676.88 1336.85 676.053 1336.85 675.04V624.56C1336.85 623.547 1337.14 622.747 1337.73 622.16C1338.32 621.52 1339.12 621.2 1340.13 621.2C1341.14 621.2 1341.94 621.52 1342.53 622.16C1343.12 622.747 1343.41 623.547 1343.41 624.56V675.04C1343.41 676.053 1343.12 676.88 1342.53 677.52C1341.94 678.107 1341.14 678.4 1340.13 678.4ZM1399.48 621.2C1400.44 621.2 1401.19 621.52 1401.72 622.16C1402.25 622.747 1402.52 623.547 1402.52 624.56V675.04C1402.52 676.053 1402.23 676.88 1401.64 677.52C1401.11 678.107 1400.33 678.4 1399.32 678.4C1398.31 678.4 1397.43 677.947 1396.68 677.04L1363.48 632.64V675.04C1363.48 676.053 1363.19 676.88 1362.6 677.52C1362.07 678.107 1361.32 678.4 1360.36 678.4C1359.4 678.4 1358.65 678.107 1358.12 677.52C1357.59 676.88 1357.32 676.053 1357.32 675.04V624.56C1357.32 623.547 1357.59 622.747 1358.12 622.16C1358.71 621.52 1359.51 621.2 1360.52 621.2C1361.59 621.2 1362.49 621.653 1363.24 622.56L1396.36 666.96V624.56C1396.36 623.547 1396.63 622.747 1397.16 622.16C1397.75 621.52 1398.52 621.2 1399.48 621.2ZM1458.62 621.2C1459.58 621.2 1460.33 621.52 1460.86 622.16C1461.39 622.747 1461.66 623.547 1461.66 624.56V675.04C1461.66 676.053 1461.37 676.88 1460.78 677.52C1460.25 678.107 1459.47 678.4 1458.46 678.4C1457.45 678.4 1456.57 677.947 1455.82 677.04L1422.62 632.64V675.04C1422.62 676.053 1422.33 676.88 1421.74 677.52C1421.21 678.107 1420.46 678.4 1419.5 678.4C1418.54 678.4 1417.79 678.107 1417.26 677.52C1416.73 676.88 1416.46 676.053 1416.46 675.04V624.56C1416.46 623.547 1416.73 622.747 1417.26 622.16C1417.85 621.52 1418.65 621.2 1419.66 621.2C1420.73 621.2 1421.63 621.653 1422.38 622.56L1455.5 666.96V624.56C1455.5 623.547 1455.77 622.747 1456.3 622.16C1456.89 621.52 1457.66 621.2 1458.62 621.2ZM1478.96 678C1477.95 678 1477.12 677.707 1476.48 677.12C1475.89 676.533 1475.6 675.76 1475.6 674.8V624.8C1475.6 623.84 1475.89 623.067 1476.48 622.48C1477.12 621.893 1477.95 621.6 1478.96 621.6H1508.88C1509.84 621.6 1510.59 621.84 1511.12 622.32C1511.65 622.8 1511.92 623.467 1511.92 624.32C1511.92 625.173 1511.65 625.84 1511.12 626.32C1510.59 626.8 1509.84 627.04 1508.88 627.04H1482.08V646.64H1507.28C1508.24 646.64 1508.99 646.88 1509.52 647.36C1510.05 647.84 1510.32 648.507 1510.32 649.36C1510.32 650.213 1510.05 650.88 1509.52 651.36C1508.99 651.84 1508.24 652.08 1507.28 652.08H1482.08V672.56H1508.88C1509.84 672.56 1510.59 672.8 1511.12 673.28C1511.65 673.707 1511.92 674.373 1511.92 675.28C1511.92 676.133 1511.65 676.8 1511.12 677.28C1510.59 677.76 1509.84 678 1508.88 678H1478.96ZM1565.2 673.92C1565.58 674.507 1565.76 675.12 1565.76 675.76C1565.76 676.56 1565.44 677.227 1564.8 677.76C1564.22 678.24 1563.52 678.48 1562.72 678.48C1561.5 678.48 1560.54 677.947 1559.84 676.88L1549.12 659.92C1547.74 657.733 1546.3 656.24 1544.8 655.44C1543.31 654.587 1541.28 654.16 1538.72 654.16H1528.64V675.04C1528.64 676.053 1528.35 676.88 1527.76 677.52C1527.18 678.107 1526.4 678.4 1525.44 678.4C1524.43 678.4 1523.63 678.107 1523.04 677.52C1522.46 676.88 1522.16 676.053 1522.16 675.04V624.8C1522.16 623.84 1522.46 623.067 1523.04 622.48C1523.68 621.893 1524.51 621.6 1525.52 621.6H1545.36C1551.5 621.6 1556.16 622.96 1559.36 625.68C1562.62 628.4 1564.24 632.4 1564.24 637.68C1564.24 642.16 1562.94 645.76 1560.32 648.48C1557.76 651.2 1554.08 652.853 1549.28 653.44C1550.62 653.867 1551.82 654.56 1552.88 655.52C1553.95 656.48 1555.02 657.813 1556.08 659.52L1565.2 673.92ZM1544.8 648.72C1549.18 648.72 1552.43 647.813 1554.56 646C1556.75 644.187 1557.84 641.44 1557.84 637.76C1557.84 634.133 1556.78 631.44 1554.64 629.68C1552.51 627.92 1549.23 627.04 1544.8 627.04H1528.64V648.72H1544.8ZM1594.93 678.64C1590.93 678.64 1587.09 678.053 1583.41 676.88C1579.78 675.653 1576.88 674.027 1574.69 672C1573.89 671.253 1573.49 670.32 1573.49 669.2C1573.49 668.453 1573.7 667.813 1574.13 667.28C1574.56 666.693 1575.06 666.4 1575.65 666.4C1576.34 666.4 1577.09 666.693 1577.89 667.28C1582.85 671.12 1588.5 673.04 1594.85 673.04C1599.44 673.04 1602.96 672.16 1605.41 670.4C1607.86 668.64 1609.09 666.133 1609.09 662.88C1609.09 661.013 1608.5 659.52 1607.33 658.4C1606.16 657.227 1604.61 656.293 1602.69 655.6C1600.77 654.907 1598.18 654.187 1594.93 653.44C1590.56 652.427 1586.96 651.36 1584.13 650.24C1581.36 649.12 1579.09 647.52 1577.33 645.44C1575.62 643.36 1574.77 640.64 1574.77 637.28C1574.77 634.08 1575.62 631.253 1577.33 628.8C1579.09 626.293 1581.52 624.373 1584.61 623.04C1587.76 621.653 1591.33 620.96 1595.33 620.96C1599.06 620.96 1602.53 621.547 1605.73 622.72C1608.98 623.84 1611.7 625.467 1613.89 627.6C1614.74 628.453 1615.17 629.387 1615.17 630.4C1615.17 631.147 1614.96 631.813 1614.53 632.4C1614.1 632.933 1613.6 633.2 1613.01 633.2C1612.42 633.2 1611.65 632.907 1610.69 632.32C1608.08 630.187 1605.65 628.693 1603.41 627.84C1601.17 626.987 1598.48 626.56 1595.33 626.56C1590.9 626.56 1587.46 627.493 1585.01 629.36C1582.56 631.173 1581.33 633.733 1581.33 637.04C1581.33 639.867 1582.4 642 1584.53 643.44C1586.72 644.827 1590.05 646.053 1594.53 647.12C1599.38 648.293 1603.2 649.387 1605.97 650.4C1608.74 651.36 1611.04 652.827 1612.85 654.8C1614.72 656.773 1615.65 659.413 1615.65 662.72C1615.65 665.867 1614.77 668.64 1613.01 671.04C1611.3 673.44 1608.88 675.307 1605.73 676.64C1602.58 677.973 1598.98 678.64 1594.93 678.64Z" fill="black"/>
</g>
<defs>
<clipPath id="clip0">
<rect width="1920" height="1080" fill="white"/>
</clipPath>
<clipPath id="clip1">
<rect width="1024" height="1024" fill="white" transform="translate(874 55.0984) rotate(-29.9418)"/>
</clipPath>
</defs>
</svg>
