<svg width="1920" height="1080" viewBox="0 0 1920 1080" fill="none" xmlns="http://www.w3.org/2000/svg">
<g clip-path="url(#clip0)">
<rect width="1920" height="1080" fill="#0580C5"/>
<g opacity="0.4" clip-path="url(#clip1)">
<path fill-rule="evenodd" clip-rule="evenodd" d="M1712.56 436.457C1719.25 444.654 1725.33 452.089 1732.07 460.33C1794.71 409.129 1857.02 358.203 1919.27 307.315C1943.06 336.414 1966.19 364.711 1989.31 393.012C1989.51 393.266 1989.59 393.621 1989.76 393.914C2005.23 421.285 2006.52 450.114 1998.44 479.816C1988.45 516.551 1967.67 547.344 1944.77 576.982C1891.33 646.171 1822.6 693.468 1738.86 717.854C1718.96 723.652 1697.13 725.106 1676.25 724.766C1646.34 724.275 1621.19 710.922 1602.01 687.505C1552.56 627.122 1502.6 567.149 1454.01 506.08C1410.31 451.148 1419.18 375.943 1473.36 331.394C1533.59 281.872 1593.43 231.849 1654.62 183.537C1716.48 134.695 1730.28 45.772 1691.32 -19.0675C1686.84 -26.5265 1681.36 -33.4361 1675.87 -40.2258C1656.62 -64.0302 1637.17 -87.6704 1617.8 -111.373C1615.52 -114.164 1613.23 -116.958 1610.31 -120.539C1620 -128.46 1628.78 -135.635 1637.56 -142.811C1651.61 -154.294 1665.75 -165.674 1679.7 -177.286C1712.89 -204.922 1749.74 -210.709 1790.13 -196.115C1819.63 -185.46 1844.68 -167.494 1869.1 -148.397C1906.61 -119.058 1941.18 -86.8028 1968.71 -47.6508C2001.1 -1.60164 2021.88 49.4722 2032.29 104.598C2040.26 146.84 2025.78 180.789 1992.46 207.837C1902.44 280.923 1812.82 354.5 1723.05 427.882C1719.71 430.612 1716.37 433.343 1712.56 436.457V436.457ZM1877.66 421.794C1857.57 437.884 1854.54 466.209 1870.73 486.36C1886.89 506.466 1915.75 510.125 1935.45 494.566C1955.09 479.051 1958.14 449.632 1942.18 429.672C1925.93 409.369 1897.5 405.895 1877.66 421.794Z" fill="#D6D600"/>
<path fill-rule="evenodd" clip-rule="evenodd" d="M1397.73 53.2147C1391.05 45.047 1385.02 37.6651 1378.23 29.3579C1315.47 80.6545 1253.16 131.586 1190.68 182.648C1188.37 180.568 1186.71 179.424 1185.49 177.921C1163.88 151.265 1141.63 125.099 1120.93 97.7524C1087.94 54.1671 1086.16 17.3967 1117.62 -27.2798C1136.64 -54.2956 1158.57 -79.7078 1181.9 -103.152C1227.83 -149.312 1279.6 -188.41 1336.66 -220.051C1369.76 -238.408 1405.25 -245.11 1442.75 -237.112C1468.91 -231.535 1490.84 -218.609 1507.89 -197.742C1557.06 -137.56 1606.54 -77.6341 1655.34 -17.1544C1700.07 38.2718 1691.98 112.655 1636.87 157.857C1576.06 207.737 1515.05 257.38 1454.21 307.227C1394.81 355.888 1378.84 436.169 1415.35 503.652C1420.11 512.455 1426.32 520.591 1432.61 528.431C1452.19 552.834 1472.13 576.947 1491.93 601.171C1494.22 603.972 1496.51 606.769 1499.58 610.532C1493.79 615.262 1488.95 619.286 1484.04 623.223C1464.65 638.782 1445.77 655.054 1425.7 669.687C1394.12 692.713 1359.01 696.023 1322.05 684.984C1291.14 675.755 1265.75 657.172 1240.52 637.957C1175.3 588.272 1128.1 524.86 1095.62 450.022C1065.38 380.372 1081.78 311.676 1140.62 263.422C1223.01 195.855 1305.59 128.526 1388.08 61.0963C1391.15 58.594 1394.21 56.0911 1397.73 53.2147V53.2147ZM1173.86 -3.90702C1154.38 12.2461 1152.06 40.856 1168.62 60.8805C1184.99 80.6711 1213.97 83.6032 1233.37 67.4286C1252.68 51.3251 1255.05 22.1874 1238.65 2.46161C1222.24 -17.2636 1193.4 -20.0985 1173.86 -3.90702V-3.90702Z" fill="#010BC1"/>
<circle cx="1905.76" cy="457.7" r="50" transform="rotate(-39.261 1905.76 457.7)" fill="white"/>
<circle cx="1203.79" cy="31.8159" r="50" transform="rotate(-39.261 1203.79 31.8159)" fill="#FFEFEF"/>
</g>
<g opacity="0.4" clip-path="url(#clip2)">
<path fill-rule="evenodd" clip-rule="evenodd" d="M195.662 964.743C187.692 971.71 180.462 978.029 172.447 985.033C225.689 1045.95 278.645 1106.54 331.561 1167.09C303.263 1191.82 275.745 1215.87 248.224 1239.91C247.977 1240.12 247.625 1240.21 247.337 1240.39C220.491 1256.76 191.721 1259 161.769 1251.9C124.723 1243.13 93.2607 1223.38 62.8836 1201.48C-8.03319 1150.35 -57.5738 1083.21 -84.7118 1000.33C-91.1637 980.625 -93.3379 958.857 -93.688 937.975C-94.1852 908.068 -81.6696 882.488 -58.899 862.547C-0.181491 811.131 58.1083 759.214 117.54 708.639C170.999 663.144 246.456 669.529 292.769 722.207C344.254 780.769 396.225 838.928 446.532 898.487C497.39 958.705 586.72 969.558 650.238 928.48C657.545 923.755 664.269 918.045 670.874 912.336C694.03 892.315 717.015 872.094 740.065 851.949C742.78 849.576 745.496 847.202 748.979 844.158C757.216 853.583 764.676 862.119 772.138 870.657C784.08 884.323 795.92 898.082 807.987 911.638C836.703 943.895 843.704 980.535 830.451 1021.39C820.777 1051.22 803.648 1076.86 785.367 1101.89C757.283 1140.35 726.187 1175.96 687.966 1204.77C643.011 1238.66 592.652 1261.12 537.899 1273.34C495.944 1282.7 461.535 1269.36 433.402 1236.95C357.383 1149.39 280.886 1062.25 204.579 974.946C201.74 971.698 198.902 968.449 195.662 964.743V964.743ZM215.77 1129.27C199.025 1109.73 170.616 1107.63 151.011 1124.48C131.449 1141.3 128.745 1170.26 144.946 1189.43C161.101 1208.55 190.605 1210.63 210.027 1194.02C229.783 1177.11 232.316 1148.58 215.77 1129.27Z" fill="#D6D600"/>
<path fill-rule="evenodd" clip-rule="evenodd" d="M568.3 637.431C576.243 630.489 583.421 624.215 591.5 617.155C538.158 556.123 485.197 495.527 432.1 434.775C434.103 432.395 435.191 430.695 436.653 429.428C462.581 406.954 487.998 383.845 514.646 362.257C557.118 327.848 593.809 324.85 639.5 354.814C667.129 372.936 693.252 394.019 717.453 416.558C765.105 460.936 805.892 511.391 839.399 567.369C858.84 599.845 866.71 635.1 859.955 672.847C855.244 699.175 843.05 721.515 822.758 739.245C764.232 790.374 705.973 841.812 647.138 892.584C593.219 939.113 518.608 933.485 471.611 879.898C419.751 820.767 368.12 761.432 316.291 702.272C265.695 644.515 184.931 631.203 118.69 669.917C110.049 674.968 102.123 681.443 94.4948 687.99C70.7512 708.363 47.3105 729.089 23.7529 749.678C21.0295 752.059 18.3091 754.436 14.6498 757.635C9.73133 752.007 5.54967 747.3 1.45281 742.523C-14.7387 723.652 -31.6244 705.324 -46.9124 685.749C-70.9688 654.942 -75.4368 619.964 -65.6244 582.656C-57.4204 551.465 -39.6868 525.468 -21.3145 499.625C26.1893 432.797 88.0075 383.529 161.732 348.589C230.346 316.07 299.546 330.195 349.717 387.407C419.968 467.517 489.986 547.828 560.104 628.054C562.706 631.031 565.309 634.009 568.3 637.431V637.431ZM617.998 411.803C601.21 392.862 572.539 391.494 553.072 408.707C533.833 425.72 531.86 454.777 548.666 473.631C565.398 492.403 594.598 493.806 613.772 476.76C632.944 459.714 634.825 430.792 617.998 411.803V411.803Z" fill="#010BC1"/>
<circle cx="583.282" cy="442.889" r="50" transform="rotate(48.8466 583.282 442.889)" fill="#FFEFEF"/>
</g>
<g clip-path="url(#clip3)">
<path fill-rule="evenodd" clip-rule="evenodd" d="M314.923 460.64C314.923 465.933 314.923 470.734 314.923 476.056C355.375 476.056 395.611 476.056 435.816 476.056C435.816 494.847 435.816 513.12 435.811 531.392C435.811 531.556 435.729 531.718 435.7 531.884C433.03 547.377 424.406 558.944 411.88 567.887C396.387 578.946 378.599 584.293 360.358 588.522C317.776 598.398 276.199 594.957 236.065 577.902C226.525 573.848 217.615 567.504 209.638 560.765C198.215 551.112 192.703 537.983 192.688 522.849C192.652 483.826 192.286 444.798 192.801 405.783C193.263 370.687 220.495 344.38 255.566 344.278C294.554 344.164 333.55 343.735 372.525 344.393C411.93 345.06 445.409 315 450.844 277.571C451.469 273.266 451.532 268.855 451.556 264.49C451.638 249.185 451.588 233.878 451.588 218.572C451.588 216.769 451.588 214.965 451.588 212.653C457.847 212.653 463.515 212.653 469.185 212.653C478.259 212.654 487.335 212.724 496.409 212.641C518.001 212.444 534.099 221.864 545.12 240.297C553.168 253.755 557.181 268.637 560.591 283.757C565.83 306.985 569.005 330.409 567.275 354.279C565.242 382.354 557.127 408.703 543.711 433.336C533.431 452.212 517.085 460.775 495.628 460.703C437.651 460.513 379.674 460.639 321.698 460.64C319.541 460.64 317.384 460.64 314.923 460.64V460.64ZM383.48 507.205C370.613 507.079 360.475 517.084 360.369 530.011C360.262 542.907 370.276 553.454 382.825 553.664C395.339 553.873 405.83 543.45 405.965 530.671C406.101 517.671 396.193 507.329 383.48 507.205Z" fill="#D6D600"/>
<path fill-rule="evenodd" clip-rule="evenodd" d="M314.31 212.653C314.31 207.378 314.31 202.611 314.31 197.247C273.782 197.247 233.543 197.247 193.2 197.247C192.963 195.71 192.681 194.741 192.685 193.773C192.756 176.617 192.419 159.445 193.06 142.309C194.081 114.998 205.025 100.198 231.34 92.8558C247.253 88.4168 263.786 85.5193 280.234 83.8243C312.621 80.4868 345.036 81.7333 377.136 87.5373C395.759 90.9043 411.621 99.5418 423.609 114.505C431.971 124.941 436.369 136.883 436.367 150.356C436.359 189.213 436.554 228.071 436.31 266.927C436.085 302.536 409.417 328.773 373.779 328.834C334.453 328.902 295.127 328.816 255.801 328.863C217.409 328.907 185.822 354.932 178.601 392.609C177.66 397.524 177.489 402.638 177.444 407.664C177.302 423.307 177.392 438.951 177.392 454.595C177.392 456.403 177.392 458.21 177.392 460.64C173.655 460.64 170.507 460.665 167.36 460.636C154.928 460.522 142.472 460.849 130.072 460.163C110.559 459.083 95.9205 449.256 85.1035 433.286C76.0605 419.935 72.1079 404.704 68.4239 389.284C58.8955 349.411 60.6879 309.927 71.7919 270.675C82.1259 234.144 110.213 212.739 148.26 212.676C201.535 212.588 254.809 212.653 308.083 212.653C310.06 212.653 312.038 212.653 314.31 212.653V212.653ZM245.719 119.702C233.065 119.79 223.116 130.134 223.191 143.126C223.265 155.967 233.555 166.271 246.183 166.148C258.756 166.025 268.892 155.494 268.784 142.667C268.675 129.84 258.405 119.615 245.719 119.702V119.702Z" fill="#010BC1"/>
<circle cx="383" cy="530" r="25" fill="white"/>
<circle cx="246" cy="143" r="25" fill="#FFEFEF"/>
</g>
<rect x="842" y="502" width="740" height="184" fill="#010BC1"/>
<rect x="1001" y="690" width="740" height="184" fill="#010BC1"/>
<path d="M938.8 631.5C937.533 631.5 936.533 631.133 935.8 630.4C935.067 629.6 934.7 628.567 934.7 627.3V564.5C934.7 563.3 935.067 562.333 935.8 561.6C936.6 560.867 937.633 560.5 938.9 560.5H962.6C970 560.5 975.733 562.3 979.8 565.9C983.933 569.5 986 574.6 986 581.2C986 587.8 983.933 592.933 979.8 596.6C975.667 600.267 969.933 602.1 962.6 602.1H942.9V627.3C942.9 628.567 942.533 629.6 941.8 630.4C941.067 631.133 940.067 631.5 938.8 631.5ZM961.8 595.3C972.533 595.3 977.9 590.6 977.9 581.2C977.9 571.933 972.533 567.3 961.8 567.3H942.9V595.3H961.8ZM1033.15 583.8C1033.88 582.2 1035.05 581.4 1036.65 581.4C1037.65 581.4 1038.55 581.733 1039.35 582.4C1040.15 583.067 1040.55 583.9 1040.55 584.9C1040.55 585.5 1040.42 586.033 1040.15 586.5L1012.05 647.1C1011.72 647.833 1011.22 648.4 1010.55 648.8C1009.95 649.2 1009.32 649.4 1008.65 649.4C1007.65 649.4 1006.75 649.067 1005.95 648.4C1005.22 647.8 1004.85 647 1004.85 646C1004.85 645.467 1004.98 644.933 1005.25 644.4L1012.25 629.3L992.451 586.5C992.184 586.033 992.051 585.533 992.051 585C992.051 584 992.484 583.133 993.351 582.4C994.284 581.667 995.284 581.3 996.351 581.3C997.017 581.3 997.651 581.5 998.251 581.9C998.917 582.3 999.417 582.867 999.751 583.6L1016.45 621.1L1033.15 583.8ZM1072.99 625.1C1075.33 625.3 1076.49 626.367 1076.49 628.3C1076.49 629.433 1076.06 630.3 1075.19 630.9C1074.39 631.433 1073.16 631.633 1071.49 631.5L1068.79 631.3C1063.46 630.9 1059.53 629.3 1056.99 626.5C1054.46 623.7 1053.19 619.467 1053.19 613.8V588.7H1046.49C1045.36 588.7 1044.46 588.433 1043.79 587.9C1043.19 587.3 1042.89 586.533 1042.89 585.6C1042.89 584.6 1043.19 583.8 1043.79 583.2C1044.46 582.6 1045.36 582.3 1046.49 582.3H1053.19V571C1053.19 569.733 1053.56 568.767 1054.29 568.1C1055.03 567.367 1056.03 567 1057.29 567C1058.49 567 1059.46 567.367 1060.19 568.1C1060.93 568.767 1061.29 569.733 1061.29 571V582.3H1072.39C1073.46 582.3 1074.29 582.6 1074.89 583.2C1075.56 583.8 1075.89 584.6 1075.89 585.6C1075.89 586.533 1075.56 587.3 1074.89 587.9C1074.29 588.433 1073.46 588.7 1072.39 588.7H1061.29V614.2C1061.29 617.867 1062.03 620.533 1063.49 622.2C1065.03 623.8 1067.29 624.7 1070.29 624.9L1072.99 625.1ZM1109.08 581.1C1114.81 581.1 1119.14 582.733 1122.08 586C1125.01 589.2 1126.48 594 1126.48 600.4V627.5C1126.48 628.767 1126.11 629.767 1125.38 630.5C1124.64 631.167 1123.68 631.5 1122.48 631.5C1121.21 631.5 1120.21 631.167 1119.48 630.5C1118.74 629.767 1118.38 628.767 1118.38 627.5V600.6C1118.38 596.267 1117.48 593.067 1115.68 591C1113.94 588.933 1111.14 587.9 1107.28 587.9C1102.81 587.9 1099.24 589.267 1096.58 592C1093.91 594.733 1092.58 598.433 1092.58 603.1V627.5C1092.58 628.767 1092.21 629.767 1091.48 630.5C1090.81 631.167 1089.84 631.5 1088.58 631.5C1087.31 631.5 1086.31 631.167 1085.58 630.5C1084.84 629.767 1084.48 628.767 1084.48 627.5V563.9C1084.48 562.767 1084.84 561.833 1085.58 561.1C1086.38 560.367 1087.38 560 1088.58 560C1089.84 560 1090.81 560.367 1091.48 561.1C1092.21 561.767 1092.58 562.7 1092.58 563.9V590.1C1094.18 587.167 1096.41 584.933 1099.28 583.4C1102.14 581.867 1105.41 581.1 1109.08 581.1ZM1161.51 631.7C1156.91 631.7 1152.85 630.667 1149.31 628.6C1145.85 626.533 1143.15 623.6 1141.21 619.8C1139.35 615.933 1138.41 611.467 1138.41 606.4C1138.41 601.333 1139.35 596.9 1141.21 593.1C1143.15 589.233 1145.85 586.267 1149.31 584.2C1152.85 582.133 1156.91 581.1 1161.51 581.1C1166.11 581.1 1170.18 582.133 1173.71 584.2C1177.25 586.267 1179.95 589.233 1181.81 593.1C1183.75 596.9 1184.71 601.333 1184.71 606.4C1184.71 611.467 1183.75 615.933 1181.81 619.8C1179.95 623.6 1177.25 626.533 1173.71 628.6C1170.18 630.667 1166.11 631.7 1161.51 631.7ZM1161.51 625C1166.31 625 1169.98 623.433 1172.51 620.3C1175.11 617.1 1176.41 612.467 1176.41 606.4C1176.41 600.467 1175.11 595.9 1172.51 592.7C1169.91 589.433 1166.25 587.8 1161.51 587.8C1156.78 587.8 1153.11 589.433 1150.51 592.7C1147.91 595.9 1146.61 600.467 1146.61 606.4C1146.61 612.4 1147.88 617 1150.41 620.2C1153.01 623.4 1156.71 625 1161.51 625ZM1221.28 581.1C1232.95 581.1 1238.78 587.533 1238.78 600.4V627.5C1238.78 628.767 1238.41 629.767 1237.68 630.5C1237.01 631.167 1236.05 631.5 1234.78 631.5C1233.51 631.5 1232.51 631.167 1231.78 630.5C1231.05 629.767 1230.68 628.767 1230.68 627.5V600.9C1230.68 596.367 1229.78 593.067 1227.98 591C1226.25 588.933 1223.45 587.9 1219.58 587.9C1215.11 587.9 1211.55 589.267 1208.88 592C1206.21 594.733 1204.88 598.433 1204.88 603.1V627.5C1204.88 628.767 1204.51 629.767 1203.78 630.5C1203.11 631.167 1202.15 631.5 1200.88 631.5C1199.61 631.5 1198.61 631.167 1197.88 630.5C1197.15 629.767 1196.78 628.767 1196.78 627.5V585.3C1196.78 584.1 1197.15 583.133 1197.88 582.4C1198.61 581.667 1199.61 581.3 1200.88 581.3C1202.08 581.3 1203.01 581.667 1203.68 582.4C1204.41 583.133 1204.78 584.067 1204.78 585.2V590.3C1206.38 587.3 1208.61 585.033 1211.48 583.5C1214.35 581.9 1217.61 581.1 1221.28 581.1ZM1311.3 594.8C1315.57 596 1318.8 598.067 1321 601C1323.27 603.933 1324.4 607.567 1324.4 611.9C1324.4 618.033 1322.33 622.867 1318.2 626.4C1314.07 629.933 1308.43 631.7 1301.3 631.7C1296.97 631.7 1292.8 630.967 1288.8 629.5C1284.87 628.033 1281.53 626.033 1278.8 623.5C1277.73 622.5 1277.2 621.367 1277.2 620.1C1277.2 619.1 1277.47 618.267 1278 617.6C1278.53 616.933 1279.17 616.6 1279.9 616.6C1280.83 616.6 1281.77 616.967 1282.7 617.7C1285.77 620.167 1288.77 621.967 1291.7 623.1C1294.63 624.233 1297.8 624.8 1301.2 624.8C1306.13 624.8 1309.87 623.667 1312.4 621.4C1315 619.133 1316.3 615.867 1316.3 611.6C1316.3 603 1310.9 598.7 1300.1 598.7H1294.8C1293.73 598.7 1292.87 598.367 1292.2 597.7C1291.6 596.967 1291.3 596.133 1291.3 595.2C1291.3 594.267 1291.6 593.467 1292.2 592.8C1292.87 592.133 1293.73 591.8 1294.8 591.8H1298.5C1303.7 591.8 1307.7 590.667 1310.5 588.4C1313.3 586.067 1314.7 582.733 1314.7 578.4C1314.7 574.6 1313.57 571.7 1311.3 569.7C1309.03 567.633 1305.83 566.6 1301.7 566.6C1298.57 566.6 1295.53 567.2 1292.6 568.4C1289.67 569.533 1286.73 571.3 1283.8 573.7C1282.87 574.433 1281.93 574.8 1281 574.8C1280.27 574.8 1279.63 574.467 1279.1 573.8C1278.57 573.133 1278.3 572.3 1278.3 571.3C1278.3 570.033 1278.83 568.9 1279.9 567.9C1282.63 565.367 1285.93 563.367 1289.8 561.9C1293.73 560.433 1297.77 559.7 1301.9 559.7C1308.3 559.7 1313.4 561.333 1317.2 564.6C1321 567.867 1322.87 572.267 1322.8 577.8C1322.73 581.8 1321.67 585.3 1319.6 588.3C1317.6 591.3 1314.83 593.467 1311.3 594.8Z" fill="white"/>
<path d="M1041.8 833.5C1040.53 833.5 1039.53 833.133 1038.8 832.4C1038.07 831.6 1037.7 830.567 1037.7 829.3V766.5C1037.7 765.3 1038.07 764.333 1038.8 763.6C1039.6 762.867 1040.63 762.5 1041.9 762.5H1078.3C1079.5 762.5 1080.43 762.8 1081.1 763.4C1081.77 764 1082.1 764.867 1082.1 766C1082.1 767.067 1081.77 767.9 1081.1 768.5C1080.43 769.1 1079.5 769.4 1078.3 769.4H1045.8V793.7H1076.3C1077.5 793.7 1078.43 794 1079.1 794.6C1079.77 795.2 1080.1 796.067 1080.1 797.2C1080.1 798.267 1079.77 799.1 1079.1 799.7C1078.43 800.3 1077.5 800.6 1076.3 800.6H1045.8V829.3C1045.8 830.567 1045.43 831.6 1044.7 832.4C1044.03 833.133 1043.07 833.5 1041.8 833.5ZM1111.39 833.7C1106.79 833.7 1102.72 832.667 1099.19 830.6C1095.72 828.533 1093.02 825.6 1091.09 821.8C1089.22 817.933 1088.29 813.467 1088.29 808.4C1088.29 803.333 1089.22 798.9 1091.09 795.1C1093.02 791.233 1095.72 788.267 1099.19 786.2C1102.72 784.133 1106.79 783.1 1111.39 783.1C1115.99 783.1 1120.05 784.133 1123.59 786.2C1127.12 788.267 1129.82 791.233 1131.69 795.1C1133.62 798.9 1134.59 803.333 1134.59 808.4C1134.59 813.467 1133.62 817.933 1131.69 821.8C1129.82 825.6 1127.12 828.533 1123.59 830.6C1120.05 832.667 1115.99 833.7 1111.39 833.7ZM1111.39 827C1116.19 827 1119.85 825.433 1122.39 822.3C1124.99 819.1 1126.29 814.467 1126.29 808.4C1126.29 802.467 1124.99 797.9 1122.39 794.7C1119.79 791.433 1116.12 789.8 1111.39 789.8C1106.65 789.8 1102.99 791.433 1100.39 794.7C1097.79 797.9 1096.49 802.467 1096.49 808.4C1096.49 814.4 1097.75 819 1100.29 822.2C1102.89 825.4 1106.59 827 1111.39 827ZM1170.76 783.3C1173.56 783.1 1174.96 784.233 1174.96 786.7C1174.96 787.767 1174.66 788.633 1174.06 789.3C1173.46 789.9 1172.42 790.267 1170.96 790.4L1167.96 790.7C1163.49 791.1 1160.16 792.7 1157.96 795.5C1155.82 798.233 1154.76 801.467 1154.76 805.2V829.5C1154.76 830.833 1154.39 831.833 1153.66 832.5C1152.92 833.167 1151.96 833.5 1150.76 833.5C1149.56 833.5 1148.56 833.167 1147.76 832.5C1147.02 831.767 1146.66 830.767 1146.66 829.5V787.3C1146.66 786.033 1147.06 785.067 1147.86 784.4C1148.66 783.667 1149.62 783.3 1150.76 783.3C1151.82 783.3 1152.72 783.667 1153.46 784.4C1154.19 785.067 1154.56 786 1154.56 787.2V792.8C1155.96 789.867 1157.92 787.633 1160.46 786.1C1163.06 784.567 1166.02 783.667 1169.36 783.4L1170.76 783.3ZM1248.89 796.8C1252.96 797.867 1256.09 799.867 1258.29 802.8C1260.56 805.733 1261.69 809.4 1261.69 813.8C1261.69 820 1259.66 824.767 1255.59 828.1C1251.52 831.367 1245.76 833 1238.29 833H1213.09C1211.82 833 1210.79 832.633 1209.99 831.9C1209.26 831.167 1208.89 830.2 1208.89 829V766.5C1208.89 765.3 1209.26 764.333 1209.99 763.6C1210.79 762.867 1211.82 762.5 1213.09 762.5H1237.19C1244.46 762.5 1250.09 764.1 1254.09 767.3C1258.09 770.5 1260.09 775.033 1260.09 780.9C1260.09 784.7 1259.09 787.967 1257.09 790.7C1255.16 793.433 1252.42 795.467 1248.89 796.8ZM1216.99 793.8H1235.99C1241.26 793.8 1245.22 792.733 1247.89 790.6C1250.62 788.467 1251.99 785.367 1251.99 781.3C1251.99 773.3 1246.66 769.3 1235.99 769.3H1216.99V793.8ZM1237.49 826.2C1243.02 826.2 1247.09 825.2 1249.69 823.2C1252.36 821.133 1253.69 817.933 1253.69 813.6C1253.69 804.933 1248.29 800.6 1237.49 800.6H1216.99V826.2H1237.49ZM1312.77 821.7C1313.51 821.7 1314.14 822 1314.67 822.6C1315.21 823.2 1315.47 823.967 1315.47 824.9C1315.47 826.567 1314.31 828.1 1311.97 829.5C1309.57 830.9 1307.04 831.967 1304.37 832.7C1301.71 833.367 1299.11 833.7 1296.57 833.7C1289.04 833.7 1283.07 831.467 1278.67 827C1274.34 822.533 1272.17 816.367 1272.17 808.5C1272.17 803.5 1273.14 799.1 1275.07 795.3C1277.01 791.433 1279.71 788.433 1283.17 786.3C1286.71 784.167 1290.71 783.1 1295.17 783.1C1301.51 783.1 1306.54 785.167 1310.27 789.3C1314.01 793.433 1315.87 799.033 1315.87 806.1C1315.87 807.433 1315.61 808.4 1315.07 809C1314.54 809.6 1313.67 809.9 1312.47 809.9H1280.27C1280.87 821.367 1286.31 827.1 1296.57 827.1C1299.17 827.1 1301.41 826.767 1303.27 826.1C1305.14 825.367 1307.14 824.4 1309.27 823.2C1311.01 822.2 1312.17 821.7 1312.77 821.7ZM1295.27 789.4C1291.01 789.4 1287.57 790.733 1284.97 793.4C1282.44 796.067 1280.94 799.833 1280.47 804.7H1308.77C1308.64 799.767 1307.41 796 1305.07 793.4C1302.74 790.733 1299.47 789.4 1295.27 789.4ZM1367.31 783.3C1368.58 783.3 1369.58 783.667 1370.31 784.4C1371.04 785.133 1371.41 786.1 1371.41 787.3V829.7C1371.41 836.967 1369.54 842.433 1365.81 846.1C1362.08 849.833 1356.54 851.7 1349.21 851.7C1342.08 851.7 1336.14 850.3 1331.41 847.5C1329.01 846.167 1327.81 844.633 1327.81 842.9C1327.81 841.967 1328.04 841.2 1328.51 840.6C1329.04 840 1329.71 839.7 1330.51 839.7C1331.18 839.7 1332.38 840.167 1334.11 841.1C1336.44 842.3 1338.74 843.267 1341.01 844C1343.28 844.733 1345.98 845.1 1349.11 845.1C1353.84 845.1 1357.41 843.833 1359.81 841.3C1362.21 838.833 1363.41 835.2 1363.41 830.4V821.8C1362.01 824.933 1359.84 827.333 1356.91 829C1354.04 830.667 1350.64 831.5 1346.71 831.5C1342.44 831.5 1338.64 830.5 1335.31 828.5C1332.04 826.5 1329.48 823.667 1327.61 820C1325.81 816.333 1324.91 812.1 1324.91 807.3C1324.91 802.5 1325.81 798.267 1327.61 794.6C1329.48 790.933 1332.04 788.1 1335.31 786.1C1338.64 784.1 1342.44 783.1 1346.71 783.1C1350.58 783.1 1353.94 783.933 1356.81 785.6C1359.68 787.267 1361.84 789.633 1363.31 792.7V787.3C1363.31 786.1 1363.64 785.133 1364.31 784.4C1365.04 783.667 1366.04 783.3 1367.31 783.3ZM1348.31 824.8C1352.98 824.8 1356.64 823.267 1359.31 820.2C1361.98 817.067 1363.31 812.767 1363.31 807.3C1363.31 801.9 1361.98 797.667 1359.31 794.6C1356.71 791.467 1353.04 789.9 1348.31 789.9C1343.58 789.9 1339.84 791.467 1337.11 794.6C1334.44 797.667 1333.11 801.9 1333.11 807.3C1333.11 812.767 1334.44 817.067 1337.11 820.2C1339.84 823.267 1343.58 824.8 1348.31 824.8ZM1390.5 833.5C1389.3 833.5 1388.3 833.167 1387.5 832.5C1386.77 831.767 1386.4 830.767 1386.4 829.5V787.3C1386.4 786.033 1386.77 785.067 1387.5 784.4C1388.3 783.667 1389.3 783.3 1390.5 783.3C1391.7 783.3 1392.67 783.667 1393.4 784.4C1394.14 785.067 1394.5 786.033 1394.5 787.3V829.5C1394.5 830.833 1394.14 831.833 1393.4 832.5C1392.67 833.167 1391.7 833.5 1390.5 833.5ZM1390.5 772.8C1388.9 772.8 1387.6 772.333 1386.6 771.4C1385.6 770.467 1385.1 769.233 1385.1 767.7C1385.1 766.233 1385.6 765.033 1386.6 764.1C1387.6 763.167 1388.9 762.7 1390.5 762.7C1392.1 762.7 1393.4 763.167 1394.4 764.1C1395.4 765.033 1395.9 766.233 1395.9 767.7C1395.9 769.233 1395.4 770.467 1394.4 771.4C1393.4 772.333 1392.1 772.8 1390.5 772.8ZM1434.14 783.1C1445.81 783.1 1451.64 789.533 1451.64 802.4V829.5C1451.64 830.767 1451.28 831.767 1450.54 832.5C1449.88 833.167 1448.91 833.5 1447.64 833.5C1446.38 833.5 1445.38 833.167 1444.64 832.5C1443.91 831.767 1443.54 830.767 1443.54 829.5V802.9C1443.54 798.367 1442.64 795.067 1440.84 793C1439.11 790.933 1436.31 789.9 1432.44 789.9C1427.98 789.9 1424.41 791.267 1421.74 794C1419.08 796.733 1417.74 800.433 1417.74 805.1V829.5C1417.74 830.767 1417.38 831.767 1416.64 832.5C1415.98 833.167 1415.01 833.5 1413.74 833.5C1412.48 833.5 1411.48 833.167 1410.74 832.5C1410.01 831.767 1409.64 830.767 1409.64 829.5V787.3C1409.64 786.1 1410.01 785.133 1410.74 784.4C1411.48 783.667 1412.48 783.3 1413.74 783.3C1414.94 783.3 1415.88 783.667 1416.54 784.4C1417.28 785.133 1417.64 786.067 1417.64 787.2V792.3C1419.24 789.3 1421.48 787.033 1424.34 785.5C1427.21 783.9 1430.48 783.1 1434.14 783.1ZM1490.98 783.1C1502.65 783.1 1508.48 789.533 1508.48 802.4V829.5C1508.48 830.767 1508.11 831.767 1507.38 832.5C1506.71 833.167 1505.75 833.5 1504.48 833.5C1503.21 833.5 1502.21 833.167 1501.48 832.5C1500.75 831.767 1500.38 830.767 1500.38 829.5V802.9C1500.38 798.367 1499.48 795.067 1497.68 793C1495.95 790.933 1493.15 789.9 1489.28 789.9C1484.81 789.9 1481.25 791.267 1478.58 794C1475.91 796.733 1474.58 800.433 1474.58 805.1V829.5C1474.58 830.767 1474.21 831.767 1473.48 832.5C1472.81 833.167 1471.85 833.5 1470.58 833.5C1469.31 833.5 1468.31 833.167 1467.58 832.5C1466.85 831.767 1466.48 830.767 1466.48 829.5V787.3C1466.48 786.1 1466.85 785.133 1467.58 784.4C1468.31 783.667 1469.31 783.3 1470.58 783.3C1471.78 783.3 1472.71 783.667 1473.38 784.4C1474.11 785.133 1474.48 786.067 1474.48 787.2V792.3C1476.08 789.3 1478.31 787.033 1481.18 785.5C1484.05 783.9 1487.31 783.1 1490.98 783.1ZM1561.02 821.7C1561.75 821.7 1562.38 822 1562.92 822.6C1563.45 823.2 1563.72 823.967 1563.72 824.9C1563.72 826.567 1562.55 828.1 1560.22 829.5C1557.82 830.9 1555.28 831.967 1552.62 832.7C1549.95 833.367 1547.35 833.7 1544.82 833.7C1537.28 833.7 1531.32 831.467 1526.92 827C1522.58 822.533 1520.42 816.367 1520.42 808.5C1520.42 803.5 1521.38 799.1 1523.32 795.3C1525.25 791.433 1527.95 788.433 1531.42 786.3C1534.95 784.167 1538.95 783.1 1543.42 783.1C1549.75 783.1 1554.78 785.167 1558.52 789.3C1562.25 793.433 1564.12 799.033 1564.12 806.1C1564.12 807.433 1563.85 808.4 1563.32 809C1562.78 809.6 1561.92 809.9 1560.72 809.9H1528.52C1529.12 821.367 1534.55 827.1 1544.82 827.1C1547.42 827.1 1549.65 826.767 1551.52 826.1C1553.38 825.367 1555.38 824.4 1557.52 823.2C1559.25 822.2 1560.42 821.7 1561.02 821.7ZM1543.52 789.4C1539.25 789.4 1535.82 790.733 1533.22 793.4C1530.68 796.067 1529.18 799.833 1528.72 804.7H1557.02C1556.88 799.767 1555.65 796 1553.32 793.4C1550.98 790.733 1547.72 789.4 1543.52 789.4ZM1600.15 783.3C1602.95 783.1 1604.35 784.233 1604.35 786.7C1604.35 787.767 1604.05 788.633 1603.45 789.3C1602.85 789.9 1601.82 790.267 1600.35 790.4L1597.35 790.7C1592.88 791.1 1589.55 792.7 1587.35 795.5C1585.22 798.233 1584.15 801.467 1584.15 805.2V829.5C1584.15 830.833 1583.78 831.833 1583.05 832.5C1582.32 833.167 1581.35 833.5 1580.15 833.5C1578.95 833.5 1577.95 833.167 1577.15 832.5C1576.42 831.767 1576.05 830.767 1576.05 829.5V787.3C1576.05 786.033 1576.45 785.067 1577.25 784.4C1578.05 783.667 1579.02 783.3 1580.15 783.3C1581.22 783.3 1582.12 783.667 1582.85 784.4C1583.58 785.067 1583.95 786 1583.95 787.2V792.8C1585.35 789.867 1587.32 787.633 1589.85 786.1C1592.45 784.567 1595.42 783.667 1598.75 783.4L1600.15 783.3ZM1627.22 833.7C1624.15 833.7 1621.22 833.333 1618.42 832.6C1615.68 831.867 1613.25 830.833 1611.12 829.5C1609.92 828.7 1609.05 827.967 1608.52 827.3C1608.05 826.567 1607.82 825.7 1607.82 824.7C1607.82 823.833 1608.05 823.133 1608.52 822.6C1609.05 822 1609.72 821.7 1610.52 821.7C1611.32 821.7 1612.48 822.2 1614.02 823.2C1616.02 824.4 1617.98 825.367 1619.92 826.1C1621.92 826.767 1624.38 827.1 1627.32 827.1C1630.92 827.1 1633.72 826.467 1635.72 825.2C1637.72 823.933 1638.72 822.1 1638.72 819.7C1638.72 818.233 1638.35 817.067 1637.62 816.2C1636.88 815.267 1635.62 814.467 1633.82 813.8C1632.02 813.067 1629.38 812.333 1625.92 811.6C1620.05 810.333 1615.85 808.633 1613.32 806.5C1610.78 804.367 1609.52 801.467 1609.52 797.8C1609.52 794.933 1610.32 792.4 1611.92 790.2C1613.52 788 1615.72 786.267 1618.52 785C1621.38 783.733 1624.62 783.1 1628.22 783.1C1630.82 783.1 1633.32 783.467 1635.72 784.2C1638.18 784.867 1640.35 785.833 1642.22 787.1C1644.48 788.7 1645.62 790.367 1645.62 792.1C1645.62 792.967 1645.35 793.7 1644.82 794.3C1644.28 794.9 1643.65 795.2 1642.92 795.2C1642.12 795.2 1640.92 794.633 1639.32 793.5C1637.45 792.3 1635.68 791.367 1634.02 790.7C1632.35 790.033 1630.28 789.7 1627.82 789.7C1624.68 789.7 1622.15 790.4 1620.22 791.8C1618.35 793.2 1617.42 795.067 1617.42 797.4C1617.42 798.867 1617.75 800.067 1618.42 801C1619.15 801.867 1620.32 802.667 1621.92 803.4C1623.58 804.067 1625.95 804.733 1629.02 805.4C1633.55 806.4 1637.05 807.5 1639.52 808.7C1642.05 809.9 1643.85 811.367 1644.92 813.1C1645.98 814.833 1646.52 817.033 1646.52 819.7C1646.52 823.9 1644.75 827.3 1641.22 829.9C1637.68 832.433 1633.02 833.7 1627.22 833.7Z" fill="white"/>
</g>
<defs>
<clipPath id="clip0">
<rect width="1920" height="1080" fill="white"/>
</clipPath>
<clipPath id="clip1">
<rect width="1024" height="1024" fill="white" transform="translate(837 174.042) rotate(-39.261)"/>
</clipPath>
<clipPath id="clip2">
<rect width="1024" height="1024" fill="white" transform="translate(429.021 81) rotate(48.8466)"/>
</clipPath>
<clipPath id="clip3">
<rect width="512" height="512" fill="white" transform="translate(59 82)"/>
</clipPath>
</defs>
</svg>
